Coordinates
version=1
nRows=54
nColumns=12
inDegrees=yes

Units are S.I. units (second, meters, Newtons, ...)
Angles are in degrees

endheader
time	SC_y	SC_z	SC_x	AC_y	AC_z	AC_x	GH_y	GH_z	GH_yy	EL_x	PS_y
       0.0              -39.66          18.17          31.03          37.43         -17.93         -7.245          6.731          85.88          53.15          56.61          117.8
   0.02083              -39.66          18.17          31.03          37.43         -17.93         -7.245           6.72          85.87          53.17          56.61          117.8
   0.04167              -39.66          18.17          31.03          37.43         -17.92         -7.244          6.709          85.86          53.18          56.62          117.8
    0.0625              -39.66          18.17          31.03          37.43         -17.92         -7.244          6.697          85.85           53.2          56.63          117.8
   0.08334              -39.66          18.17          31.03          37.44         -17.92         -7.244          6.683          85.83          53.22          56.63          117.8
    0.1042              -39.66          18.17          31.03          37.44         -17.91         -7.244          6.669          85.82          53.24          56.64          117.8
     0.125              -39.66          18.17          31.03          37.44         -17.91         -7.244          6.654           85.8          53.26          56.65          117.9
    0.1458              -39.66          18.17          31.03          37.44          -17.9         -7.244          6.638          85.79          53.29          56.66          117.9
    0.1667              -39.66          18.17          31.03          37.44          -17.9         -7.243          6.621          85.77          53.31          56.67          117.9
    0.1875              -39.66          18.17          31.03          37.44         -17.89         -7.243          6.603          85.75          53.34          56.68          117.9
    0.2083              -39.66          18.17          31.03          37.44         -17.89         -7.243          6.583          85.73          53.37          56.69          117.9
    0.2292              -39.66          18.17          31.03          37.44         -17.88         -7.243          6.562          85.71           53.4           56.7          117.9
      0.25              -39.66          18.17          31.03          37.44         -17.88         -7.243          6.539          85.68          53.43          56.71          117.9
    0.2709              -39.66          18.18          31.03          37.44         -17.87         -7.242          6.514          85.66          53.47          56.72          117.9
    0.2917              -39.66          18.18          31.03          37.44         -17.86         -7.242          6.487          85.63           53.5          56.74          117.9
    0.3125              -39.66          18.18          31.02          37.45         -17.85         -7.242          6.458           85.6          53.55          56.75          117.9
    0.3334              -39.66          18.18          31.02          37.45         -17.84         -7.241          6.427          85.57          53.59          56.77          118.0
    0.3542              -39.66          18.18          31.02          37.45         -17.83         -7.241          6.392          85.53          53.64          56.79          118.0
     0.375              -39.66          18.18          31.02          37.45         -17.82          -7.24          6.355          85.49           53.7          56.81          118.0
    0.3959              -39.66          18.18          31.02          37.45         -17.81          -7.24          6.314          85.45          53.76          56.83          118.0
    0.4167              -39.66          18.18          31.02          37.45          -17.8          -7.24          6.269           85.4          53.82          56.85          118.0
    0.4375              -39.66          18.18          31.02          37.46         -17.79         -7.239          6.219          85.35          53.89          56.88          118.0
    0.4584              -39.66          18.18          31.02          37.46         -17.77         -7.238          6.164          85.29          53.97          56.91          118.1
    0.4792              -39.66          18.18          31.01          37.46         -17.75         -7.238          6.103          85.23          54.06          56.94          118.1
       0.5              -39.66          18.18          31.01          37.46         -17.74         -7.237          6.036          85.16          54.16          56.98          118.1
    0.5209              -39.67          18.18          31.01          37.47         -17.71         -7.236           5.96          85.08          54.27          57.02          118.1
    0.5417              -39.67          18.18          31.01          37.47         -17.69         -7.235          5.876          84.99          54.39          57.06          118.2
    0.5625              -39.67          18.18           31.0          37.48         -17.66         -7.234          5.781          84.89          54.53          57.11          118.2
    0.5834              -39.67          18.18           31.0          37.48         -17.64         -7.233          5.673          84.78          54.69          57.17          118.3
    0.6042              -39.67          18.18           31.0          37.49          -17.6         -7.232          5.551          84.65          54.86          57.23          118.3
     0.625              -39.67          18.18          30.99          37.49         -17.56          -7.23          5.412           84.5          55.07          57.31          118.4
    0.6459              -39.67          18.18          30.99           37.5         -17.52         -7.228          5.253          84.33           55.3          57.39          118.4
    0.6667              -39.67          18.18          30.98          37.51         -17.47         -7.226          5.068          84.14          55.57          57.49          118.5
    0.6876              -39.68          18.18          30.97          37.52         -17.41         -7.224          4.854          83.92          55.88           57.6          118.6
    0.7084              -39.68          18.18          30.96          37.53         -17.34         -7.221          4.603          83.65          56.24          57.74          118.7
    0.7292              -39.68          18.19          30.95          37.54         -17.26         -7.218          4.308          83.34          56.67          57.89          118.8
    0.7501              -39.69          18.19          30.94          37.56         -17.16         -7.214          3.956          82.98          57.18          58.08          119.0
    0.7709              -39.69          18.19          30.93          37.58         -17.04         -7.209          3.535          82.53          57.79           58.3          119.2
    0.7917              -39.69          18.19          30.91           37.6          -16.9         -7.204          3.026           82.0          58.53          58.57          119.4
    0.8126               -39.7          18.19          30.89          37.63         -16.73         -7.197          2.404          81.35          59.44           58.9          119.6
    0.8334              -39.71           18.2          30.87          37.66         -16.51         -7.188          1.636          80.54          60.55          59.31          120.0
    0.8542              -39.72           18.2          30.84           37.7         -16.25         -7.178         0.6786          79.54          61.94          59.82          120.4
    0.8751              -39.73          18.21           30.8          37.76         -15.91         -7.165        -0.5276          78.28           63.7          60.46          120.9
    0.8959              -39.75          18.21          30.75          37.83         -15.48         -7.148         -2.061          76.67          65.92          61.27          121.5
    0.9167              -39.77          18.22          30.68          37.91         -14.94         -7.126         -4.024          74.61          68.77          62.31          122.4
    0.9376              -39.79          18.24           30.6          38.03         -14.24         -7.098         -6.542          71.97          72.43          63.65          123.4
    0.9584              -39.82          18.25          30.49          38.17         -13.34         -7.063          -9.76           68.6          77.11          65.36          124.8
    0.9792              -39.86          18.27          30.36          38.35         -12.22         -7.018          -13.8          64.36          82.98           67.5          126.5
       1.0              -39.91          18.29           30.2          38.57         -10.85         -6.963         -18.73          59.19          90.15          70.12          128.6
     1.021              -39.97          18.32          30.01          38.83         -9.258           -6.9         -24.45           53.2          98.45          73.15          131.0
     1.042              -40.03          18.35          29.81           39.1         -7.537         -6.832         -30.64          46.71          107.4          76.43          133.6
     1.063               -40.1          18.38          29.61          39.38         -5.816         -6.764         -36.82          40.23          116.4          79.71          136.2
     1.083              -40.15           18.4          29.42          39.63         -4.227         -6.701         -42.54          34.24          124.7          82.75          138.6
     1.104               -40.2          18.42          29.26          39.85         -2.856         -6.646         -47.47          29.07          131.9          85.36          140.7
